<svg width="258" height="293" viewBox="0 0 258 293" fill="none" xmlns="http://www.w3.org/2000/svg">
<g clip-path="url(#clip0_19_39)">
<path d="M180.77 170.909C186.974 175.008 193.232 179.148 199.74 183.456C201.508 181.034 203.187 178.737 205.087 176.141C207.861 177.776 210.576 179.351 213.267 180.962C226.884 189.13 240.477 197.34 254.136 205.448C255.785 206.427 256.547 207.441 256.458 209.428C256.285 213.199 256.327 216.988 256.446 220.764C256.5 222.435 255.874 223.264 254.392 223.885C250.909 225.329 247.527 227.005 244.026 228.401C243.163 228.747 241.823 228.724 241.031 228.282C224.83 219.231 208.677 210.096 192.524 200.968C192.023 200.687 191.589 200.288 190.952 199.81C192.101 197.752 193.196 195.783 194.524 193.402C188.076 189.357 181.669 185.342 175.281 181.332C154.686 210.078 118.366 210.896 96.7708 194.798C73.7942 177.675 67.346 147.085 81.5404 122.056C95.1394 98.0824 125.213 88.0349 151.048 98.9594C176.233 109.604 192.464 139.424 180.77 170.909ZM98.4856 149.829C98.4261 166.929 112.067 180.783 129.137 180.968C146.154 181.153 160.265 167.06 160.217 149.925C160.169 132.819 146.41 118.995 129.387 118.929C112.412 118.869 98.5451 132.735 98.4856 149.829Z" fill="#0D1D2C"/>
<path d="M204.455 42.9763C221.954 52.7254 239.281 62.3553 256.559 72.0627C257.256 72.4505 257.976 73.5423 257.982 74.306C258.024 94.574 257.97 114.836 257.934 135.104C257.934 135.194 257.869 135.283 257.833 135.373C242.567 137.491 218.471 129.728 204.777 109.234C189.928 87.0026 192.803 59.5749 204.455 42.9763Z" fill="#0D1D2C"/>
<path d="M182.676 30.9539C174.126 48.6265 154.209 64.0438 128.631 63.7395C103.487 63.4412 83.9994 47.833 75.9913 30.6198C80.302 28.102 84.6365 25.5543 88.983 23.0365C101.945 15.5307 114.895 7.99506 127.916 0.596673C128.97 -0.00593764 130.893 -0.244595 131.846 0.31625C148.416 10.1131 164.897 20.0532 181.389 29.9754C181.806 30.2201 182.164 30.5601 182.676 30.9539Z" fill="#0D1D2C"/>
<path d="M76.8427 261.825C84.8211 244.415 104.255 230.323 126.362 229.087C154.406 227.518 175.221 244.553 183.515 262.088C181.187 263.442 178.823 264.826 176.454 266.199C161.438 274.892 146.41 283.555 131.423 292.308C129.851 293.227 128.738 293.239 127.16 292.284C110.793 282.368 94.3714 272.541 77.974 262.685C77.5631 262.428 77.2059 262.1 76.8427 261.825Z" fill="#0D1D2C"/>
<path d="M55.6464 252.631C47.8049 248.395 39.9575 244.153 32.116 239.911C22.4288 234.666 12.7595 229.392 3.04847 224.189C1.41111 223.312 0.565638 222.339 0.55373 220.305C0.452512 201.606 0.267937 182.913 5.73182e-06 164.214C-0.0357184 161.935 0.535868 160.987 2.91153 160.998C26.0906 161.112 44.423 170.533 56.2537 190.568C68.1975 210.8 67.7033 231.611 56.2418 252.13C56.206 252.213 56.0989 252.261 55.6464 252.631Z" fill="#0D1D2C"/>
<path d="M54.3662 44.4261C59.1592 51.6097 62.0708 59.2647 63.3092 67.4924C68.2748 100.505 47.2214 130.218 14.5278 136.333C10.753 137.037 6.84118 137.031 2.98892 137.324C1.4111 137.443 0.69662 136.799 0.702574 135.08C0.750207 115.391 0.702574 95.6958 0.839517 76.0065C0.845471 74.9922 2.04818 73.608 3.05442 73.0352C17.3977 64.9388 31.8064 56.9497 46.2033 48.9368C48.8528 47.4571 51.5262 45.9953 54.3662 44.4261Z" fill="#0D1D2C"/>
</g>
<defs>
<clipPath id="clip0_19_39">
<rect width="258" height="293" fill="white"/>
</clipPath>
</defs>
</svg>
